<svg xmlns="http://www.w3.org/2000/svg" width="2492.005" height="485.619" viewBox="0 0 2492.005 485.619">
  <g id="logo" transform="translate(-44.751 -42.19)">
    <g id="icon" transform="translate(43.939 41.735)">
      <g id="icon-2" data-name="icon" transform="translate(0.811 0.456)">
        <path id="Path" d="M217.91,0V64.208a114.911,114.911,0,0,1-57.421,99.5L.362,256.219V192.384a114.915,114.915,0,0,1,57.248-99.4Z" transform="translate(2.579)" fill="#f5b658"/>
        <path id="Path-2" data-name="Path" d="M150.354,93.86,51.773,36.66A34.473,34.473,0,0,0,0,66.478v5.405A113.083,113.083,0,0,0,56.508,169.8l151.085,87.3V193.248A114.906,114.906,0,0,0,150.354,93.86Z" transform="translate(0 228.527)" fill="#d9d9d9"/>
        <path id="Path-3" data-name="Path" d="M84.575,93.856l98.58-57.2a34.474,34.474,0,0,1,51.773,29.817v5.405a113.084,113.084,0,0,1-56.509,97.914l-151.088,87.3V193.248A114.911,114.911,0,0,1,84.575,93.856Z" transform="translate(195.193 228.498)" fill="#e9a236"/>
        <path id="Path-4" data-name="Path" d="M38.7,72.836V7.368L97.026,41.31a114.908,114.908,0,0,1,57.115,99.534l-.121,64.672L96.468,172.53A114.9,114.9,0,0,1,38.7,72.836Z" transform="translate(276.357 52.621)" fill="#fff"/>
      </g>
    </g>
    <path id="text" d="M36.188,0H106.82V-305.2H36.188ZM477.856-4.8c-14.388,15.26-30.956,22.672-49.7,22.672-15.26,0-28.34-5.668-43.164-21.364,64.964-20.928,109-77.608,109-149.112,0-91.124-71.068-157.832-166.988-157.832-96.356,0-166.988,67.144-166.988,157.832,0,82.84,58.86,146.06,142.572,156.524C349.672,53.628,381.5,70.2,426.844,70.2c33.572,0,62.348-13.08,82.4-37.5ZM231.516-152.6c0-57.988,40.984-97.664,95.484-97.664s95.484,39.676,95.484,97.664S381.5-54.936,327-54.936,231.516-94.612,231.516-152.6ZM694.984,5.232c95.92,0,166.988-66.708,166.988-157.832S790.9-310.432,694.984-310.432C598.628-310.432,528-243.288,528-152.6S598.628,5.232,694.984,5.232Zm0-60.168c-54.5,0-95.484-39.676-95.484-97.664s40.984-97.664,95.484-97.664,95.484,39.676,95.484,97.664S749.484-54.936,694.984-54.936ZM1125.316-305.2v185.3L973.588-305.2H915.164V0h69.76V-185.3L1137.088,0h57.988V-305.2ZM1267.452,0h70.632V-305.2h-70.632ZM1709.12-4.8c-14.388,15.26-30.956,22.672-49.7,22.672-15.26,0-28.34-5.668-43.164-21.364,64.964-20.928,109-77.608,109-149.112,0-91.124-71.068-157.832-166.988-157.832-96.356,0-166.988,67.144-166.988,157.832,0,82.84,58.86,146.06,142.572,156.524,47.088,49.7,78.916,66.272,124.26,66.272,33.572,0,62.348-13.08,82.4-37.5ZM1462.78-152.6c0-57.988,40.984-97.664,95.484-97.664s95.484,39.676,95.484,97.664-40.984,97.664-95.484,97.664S1462.78-94.612,1462.78-152.6Zm385.86,95.92v-70.632h141.7v-54.936h-141.7V-248.52h160.448V-305.2H1778.444V0h236.312V-56.68Z" transform="translate(522 442)" fill="#f5b658"/>
  </g>
</svg>
